<?xml version="1.0" encoding="utf-8"?>
<!-- Generator: Adobe Illustrator 16.0.0, SVG Export Plug-In . SVG Version: 6.00 Build 0)  -->
<!DOCTYPE svg PUBLIC "-//W3C//DTD SVG 1.1//EN" "http://www.w3.org/Graphics/SVG/1.1/DTD/svg11.dtd">
<svg version="1.1" id="Layer_1" xmlns="http://www.w3.org/2000/svg" xmlns:xlink="http://www.w3.org/1999/xlink" x="0px" y="0px"
	 width="875.035px" height="128px" viewBox="-24.536 328.5 875.035 128" enable-background="new -24.536 328.5 875.035 128"
	 xml:space="preserve">
<rect id="XMLID_290_" x="-23.5" y="340.8" fill="#FFFFFF" width="18" height="40.5"/>
<rect id="XMLID_303_" x="-23.5" y="385.8" fill="#FCFCFC" width="18" height="63"/>
<rect id="XMLID_306_" x="417.5" y="340.8" fill="#FCFCFC" width="18" height="40.5"/>
<rect id="XMLID_309_" x="417.5" y="385.8" fill="#FFFFFF" width="18" height="63"/>
<rect id="XMLID_304_" x="705.5" y="340.8" fill="#FFFFFF" width="18" height="40.5"/>
<rect id="XMLID_305_" x="705.5" y="385.8" fill="#FFFFFF" width="18" height="63"/>
<polygon id="XMLID_308_" fill="#FFFFFF" points="525.5,385.8 525.5,403.8 430.9,403.8 435.5,395.4 440.7,385.8 "/>
<polygon id="XMLID_307_" fill="#FFFFFF" points="807.5,385.8 807.5,403.8 718.701,403.8 723.5,394.3 727.701,385.8 "/>
<path id="XMLID_275_" fill="#FFFFFF" d="M521.1,430.8v17.7c-1.697,0.2-3.5,0.3-5.3,0.3h-80.3v-18H521.1z"/>
<path id="XMLID_274_" fill="#FFFFFF" d="M521.1,341.1v17.7h-94.6v-18h88.7C517.2,340.8,519.2,340.9,521.1,341.1z"/>
<polygon id="XMLID_301_" fill="#FFFFFF" points="39.5,385.8 17.8,407.6 5,394.8 14.1,385.8 "/>
<polygon id="XMLID_302_" fill="#FFFFFF" points="84.5,340.9 44,381.3 18.6,381.3 59.1,340.8 "/>
<polygon id="XMLID_289_" fill="#FFFFFF" points="84.5,448.8 59,448.8 17.8,407.6 5,394.8 14.1,385.8 21.5,385.8 30.5,394.8 "/>
<polygon id="XMLID_271_" fill="#FFFFFF" points="840.5,448.8 815,448.8 773.8,407.6 761,394.8 777.5,385.8 786.5,394.8 "/>
<polygon id="XMLID_297_" fill="#F9F9F9" points="132.5,385.8 152.1,385.8 141.1,403.8 130.1,421.8 113.7,448.8 93.5,448.8 "/>
<path id="XMLID_300_" fill="#FFFFFF" d="M178.1,343.2l-8.2,13.399L154.8,381.4h-19.5l19.4-31.4c1.8-2.9,4.2-5.2,7.1-6.7
	c2.5-1.399,5.3-2.2,8.2-2.399C172.9,341,175.7,341.8,178.1,343.2z"/>
<path id="XMLID_293_" fill="#FCFCFC" d="M204.7,381.3H185l-15-24.8l-8.1-13.4c2.5-1.398,5.3-2.199,8.2-2.398
	c2.9,0.199,5.6,1,8.1,2.3c2.8,1.5,5.2,3.8,7,6.601L204.7,381.3z"/>
<polygon id="XMLID_296_" fill="#FFFFFF" points="246.5,448.8 225.8,448.8 205.1,414.6 198.6,403.8 187.7,385.8 207.5,385.8 "/>
<path id="XMLID_267_" fill="#FFFFFF" d="M292.1,430.3c-19.6,0-35.5-15.897-35.5-35.5c0-3.1,0.4-6.1,1.1-9h-18.9
	c-0.5,2.9-0.8,5.9-0.8,9c0,29.8,24.2,54,54,54c11.6,0,22.4-3.7,31.2-9.897c3.5-2.5,6.7-5.303,9.5-8.5h-40.6V430.3z M292.1,359.3
	h40.7c-2.8-3.2-6-6.1-9.5-8.5c-8.8-6.3-19.6-9.899-31.2-9.899c-25.2,0-46.3,17.199-52.3,40.5h19.4
	C264.5,368.4,277.2,359.3,292.1,359.3z"/>
<path id="XMLID_265_" fill="#FFFFFF" d="M407.7,385.8h-18.9c0.8,2.9,1.2,5.9,1.2,9c0,19.603-15.9,35.5-35.5,35.5h-40.7
	c2.8,3.2,6,6.103,9.5,8.5c8.8,6.3,19.603,9.9,31.2,9.9c29.8,0,54-24.2,54-54C408.5,391.7,408.2,388.7,407.7,385.8z M354.5,359.3
	c14.8,0,27.6,9.101,32.9,22H406.8c-5.897-23.1-26.8-40.2-51.6-40.5c-0.2,0-0.4,0-0.603,0c-11.6,0-22.397,3.7-31.197,9.9
	c-3.5,2.5-6.7,5.3-9.5,8.5h40.6V359.3L354.5,359.3z"/>
<rect id="XMLID_264_" x="292.1" y="340.8" fill="#FFFFFF" width="63" height="18.5"/>
<rect id="XMLID_263_" x="292.1" y="430.3" fill="#FFFFFF" width="62.4" height="18.5"/>
<path id="XMLID_262_" fill="#FFFFFF" d="M552.6,417.3c0,15.9-11.697,29-27,31.2c-1.5,0.2-3,0.3-4.5,0.3
	c-12.6,0-23.397-7.397-28.5-18h28.5c7.5,0,13.5-6,13.5-13.5s-6-13.5-13.5-13.5h-28.5c1.603-3.397,3.803-6.397,6.4-9
	c5.7-5.6,13.5-9,22.1-9c1.5,0,3,0.101,4.5,0.3c6.803,1,12.9,4.102,17.603,8.7C549,400.5,552.6,408.5,552.6,417.3z"/>
<path id="XMLID_298_" fill="#FFFFFF" d="M546.5,385.8c-1.3,2.8-3,5.3-5,7.5c-0.4,0.5-0.9,1-1.4,1.5c-4,3.9-9,6.8-14.6,8.103
	c-1,0.197-1.9,0.397-2.9,0.6c-1.5,0.2-3,0.3-4.5,0.3c-7.8,0-14.897-2.8-20.397-7.5c-0.603-0.5-1.103-1-1.603-1.5
	c-2.6-2.6-4.8-5.6-6.397-9L546.5,385.8L546.5,385.8z"/>
<path id="XMLID_299_" fill="#FFFFFF" d="M549.6,372.3c0,3.101-0.5,6.101-1.3,9h-20.1c2.1-2.399,3.397-5.5,3.397-9
	c0-7.5-6-13.5-13.5-13.5h-28.5c4.9-10.3,15.2-17.5,27.2-18c0.4,0,0.8,0,1.3,0c1.5,0,3,0.101,4.5,0.3
	C537.8,343.3,549.6,356.4,549.6,372.3z"/>
<path id="XMLID_294_" fill="#FFFFFF" d="M834.4,385.8c-1.602,3.4-3.803,6.4-6.4,9c-4.699,4.603-10.799,7.7-17.6,8.7
	c-1,0.1-2,0.2-3,0.3c-0.5,0-1,0-1.5,0c-4.803,0-9.4-1.1-13.5-3l0,0c-3.199-1.5-6.102-3.5-8.602-6c-2.6-2.6-4.801-5.6-6.398-9H834.4z
	"/>
<path id="XMLID_295_" fill="#FFFFFF" d="M837.4,372.3c0,3.101-0.5,6.101-1.303,9H816c2.1-2.399,3.4-5.5,3.4-9
	c0-7.5-6-13.5-13.5-13.5h-28.5c4.898-10.2,15.1-17.399,27-18c0.5,0,1,0,1.5,0c1.5,0,3,0.101,4.5,0.3
	C825.701,343.3,837.4,356.4,837.4,372.3z"/>
<polygon id="XMLID_259_" fill="#FFFFFF" points="696.5,340.8 687.5,358.8 615.5,358.8 615.5,340.8 "/>
<polygon id="XMLID_288_" fill="#FFFFFF" points="687.5,385.8 678.5,403.8 571.8,403.8 571.8,385.8 "/>
<rect id="XMLID_257_" x="706.8" y="340.8" fill="#FFFFFF" width="97.699" height="18"/>
<polygon id="XMLID_256_" fill="#FFFFFF" points="696.5,430.8 687.5,448.8 615.5,448.8 615.5,430.8 "/>
<path id="XMLID_291_" fill="#FFFFFF" d="M582.1,381.3H563.2c6-23.3,27.1-40.5,52.3-40.5c16,0,30.4,7,40.2,18h-40.2
	C600.4,358.8,587.4,368.1,582.1,381.3z"/>
<path id="XMLID_292_" fill="#FFFFFF" d="M615.5,430.8h40.2c-9.9,11-24.3,18-40.2,18c-29.8,0-54-24.2-54-54c0-3.1,0.3-6.1,0.8-9h18.4
	c-0.7,2.9-1.103,5.9-1.103,9c0,3.103,0.4,6.103,1.103,9C584.6,419.3,598.7,430.8,615.5,430.8z"/>
<polygon id="XMLID_174_" fill="#FFFFFF" points="201.5,421.8 129.5,421.8 129.5,403.8 210.5,403.8 "/>
</svg>
