<?xml version="1.0" encoding="utf-8"?>
<!-- Generator: Adobe Illustrator 16.0.0, SVG Export Plug-In . SVG Version: 6.00 Build 0)  -->
<!DOCTYPE svg PUBLIC "-//W3C//DTD SVG 1.1//EN" "http://www.w3.org/Graphics/SVG/1.1/DTD/svg11.dtd">
<svg version="1.1" id="Layer_1" xmlns="http://www.w3.org/2000/svg" xmlns:xlink="http://www.w3.org/1999/xlink" x="0px" y="0px"
	 width="1088px" height="198.745px" viewBox="-238.277 296 1088 198.745" enable-background="new -238.277 296 1088 198.745"
	 xml:space="preserve">
<rect id="XMLID_290_" x="-23.5" y="340.8" fill="#FFFFFF" width="18" height="40.5"/>
<rect id="XMLID_303_" x="-23.5" y="385.8" fill="#FCFCFC" width="18" height="63"/>
<rect id="XMLID_306_" x="417.5" y="340.8" fill="#FCFCFC" width="18" height="40.5"/>
<rect id="XMLID_309_" x="417.5" y="385.8" fill="#FFFFFF" width="18" height="63"/>
<rect id="XMLID_304_" x="705.5" y="340.8" fill="#FFFFFF" width="18" height="40.5"/>
<rect id="XMLID_305_" x="705.5" y="385.8" fill="#FFFFFF" width="18" height="63"/>
<polygon id="XMLID_308_" fill="#FFFFFF" points="525.5,385.8 525.5,403.8 430.9,403.8 435.5,395.399 440.7,385.8 "/>
<polygon id="XMLID_307_" fill="#FFFFFF" points="807.5,385.8 807.5,403.8 718.7,403.8 723.5,394.3 727.7,385.8 "/>
<path id="XMLID_275_" fill="#FFFFFF" d="M521.1,430.8v17.701c-1.697,0.199-3.5,0.299-5.3,0.299h-80.3v-18H521.1z"/>
<path id="XMLID_274_" fill="#FFFFFF" d="M521.1,341.101V358.8h-94.6v-18h88.7C517.2,340.8,519.2,340.899,521.1,341.101z"/>
<polygon id="XMLID_301_" fill="#FFFFFF" points="39.5,385.8 17.8,407.601 5,394.8 14.1,385.8 "/>
<polygon id="XMLID_302_" fill="#FFFFFF" points="84.5,340.899 44,381.3 18.6,381.3 59.1,340.8 "/>
<polygon id="XMLID_289_" fill="#FFFFFF" points="84.5,448.8 59,448.8 17.8,407.601 5,394.8 14.1,385.8 21.5,385.8 30.5,394.8 "/>
<polygon id="XMLID_271_" fill="#FFFFFF" points="840.5,448.8 815,448.8 773.8,407.601 761,394.8 777.5,385.8 786.5,394.8 "/>
<polygon id="XMLID_297_" fill="#F9F9F9" points="132.5,385.8 152.1,385.8 141.1,403.8 130.1,421.8 113.7,448.8 93.5,448.8 "/>
<path id="XMLID_300_" fill="#FFFFFF" d="M178.1,343.2l-8.2,13.398l-15.1,24.801h-19.5l19.4-31.398c1.8-2.9,4.2-5.201,7.1-6.701
	c2.5-1.398,5.3-2.199,8.2-2.398C172.9,341.001,175.7,341.8,178.1,343.2z"/>
<path id="XMLID_293_" fill="#FCFCFC" d="M204.7,381.3H185l-15-24.799l-8.1-13.4c2.5-1.398,5.3-2.199,8.2-2.398
	c2.9,0.199,5.6,1,8.1,2.299c2.8,1.5,5.2,3.801,7,6.6L204.7,381.3z"/>
<polygon id="XMLID_296_" fill="#FFFFFF" points="246.5,448.8 225.8,448.8 205.1,414.601 198.6,403.8 187.7,385.8 207.5,385.8 "/>
<path id="XMLID_267_" fill="#FFFFFF" d="M292.1,430.3c-19.6,0-35.5-15.896-35.5-35.5c0-3.1,0.4-6.1,1.1-9h-18.9
	c-0.5,2.9-0.8,5.9-0.8,9c0,29.801,24.2,54,54,54c11.6,0,22.4-3.699,31.2-9.896c3.5-2.5,6.7-5.303,9.5-8.5h-40.6V430.3z M292.1,359.3
	h40.7c-2.8-3.199-6-6.1-9.5-8.5c-8.8-6.299-19.6-9.898-31.2-9.898c-25.2,0-46.3,17.199-52.3,40.5h19.4
	C264.5,368.399,277.2,359.3,292.1,359.3z"/>
<path id="XMLID_265_" fill="#FFFFFF" d="M407.7,385.8h-18.9c0.8,2.9,1.2,5.9,1.2,9c0,19.604-15.9,35.5-35.5,35.5h-40.7
	c2.8,3.201,6,6.104,9.5,8.5c8.8,6.301,19.603,9.9,31.2,9.9c29.8,0,54-24.199,54-54C408.5,391.7,408.2,388.7,407.7,385.8z
	 M354.5,359.3c14.8,0,27.6,9.102,32.9,22H406.8c-5.897-23.1-26.8-40.199-51.6-40.5c-0.2,0-0.4,0-0.603,0
	c-11.6,0-22.397,3.701-31.197,9.9c-3.5,2.5-6.7,5.301-9.5,8.5h40.6V359.3L354.5,359.3z"/>
<rect id="XMLID_264_" x="292.1" y="340.8" fill="#FFFFFF" width="63" height="18.5"/>
<rect id="XMLID_263_" x="292.1" y="430.3" fill="#FFFFFF" width="62.4" height="18.5"/>
<path id="XMLID_262_" fill="#FFFFFF" d="M552.6,417.3c0,15.9-11.697,29-27,31.201c-1.5,0.199-3,0.299-4.5,0.299
	c-12.6,0-23.397-7.396-28.5-18h28.5c7.5,0,13.5-6,13.5-13.5s-6-13.5-13.5-13.5h-28.5c1.603-3.396,3.803-6.396,6.4-9
	c5.7-5.6,13.5-9,22.1-9c1.5,0,3,0.102,4.5,0.301c6.803,1,12.9,4.102,17.603,8.699C549,400.501,552.6,408.501,552.6,417.3z"/>
<path id="XMLID_298_" fill="#FFFFFF" d="M546.5,385.8c-1.3,2.801-3,5.301-5,7.5c-0.4,0.5-0.9,1-1.4,1.5c-4,3.9-9,6.801-14.6,8.104
	c-1,0.197-1.9,0.396-2.9,0.6c-1.5,0.199-3,0.299-4.5,0.299c-7.8,0-14.897-2.799-20.397-7.5c-0.603-0.5-1.103-1-1.603-1.5
	c-2.6-2.6-4.8-5.6-6.397-9L546.5,385.8L546.5,385.8z"/>
<path id="XMLID_299_" fill="#FFFFFF" d="M549.6,372.3c0,3.102-0.5,6.102-1.3,9h-20.1c2.1-2.398,3.397-5.5,3.397-9
	c0-7.5-6-13.5-13.5-13.5h-28.5c4.9-10.299,15.2-17.5,27.2-18c0.4,0,0.8,0,1.3,0c1.5,0,3,0.102,4.5,0.301
	C537.8,343.3,549.6,356.399,549.6,372.3z"/>
<path id="XMLID_294_" fill="#FFFFFF" d="M834.4,385.8c-1.603,3.4-3.803,6.4-6.4,9c-4.7,4.604-10.8,7.701-17.6,8.701
	c-1,0.1-2,0.199-3,0.299c-0.5,0-1,0-1.5,0c-4.803,0-9.4-1.1-13.5-3l0,0c-3.2-1.5-6.103-3.5-8.603-6c-2.6-2.6-4.8-5.6-6.397-9H834.4z
	"/>
<path id="XMLID_295_" fill="#FFFFFF" d="M837.4,372.3c0,3.102-0.5,6.102-1.303,9H816c2.1-2.398,3.4-5.5,3.4-9
	c0-7.5-6-13.5-13.5-13.5h-28.5c4.897-10.199,15.1-17.398,27-18c0.5,0,1,0,1.5,0c1.5,0,3,0.102,4.5,0.301
	C825.7,343.3,837.4,356.399,837.4,372.3z"/>
<polygon id="XMLID_259_" fill="#FFFFFF" points="696.5,340.8 687.5,358.8 615.5,358.8 615.5,340.8 "/>
<polygon id="XMLID_288_" fill="#FFFFFF" points="687.5,385.8 678.5,403.8 571.8,403.8 571.8,385.8 "/>
<rect id="XMLID_257_" x="706.8" y="340.8" fill="#FFFFFF" width="97.7" height="18"/>
<polygon id="XMLID_256_" fill="#FFFFFF" points="696.5,430.8 687.5,448.8 615.5,448.8 615.5,430.8 "/>
<path id="XMLID_291_" fill="#FFFFFF" d="M582.1,381.3H563.2c6-23.299,27.1-40.5,52.3-40.5c16,0,30.4,7,40.2,18h-40.2
	C600.4,358.8,587.4,368.101,582.1,381.3z"/>
<path id="XMLID_292_" fill="#FFFFFF" d="M615.5,430.8h40.2c-9.9,11-24.3,18-40.2,18c-29.8,0-54-24.199-54-54c0-3.1,0.3-6.1,0.8-9
	h18.4c-0.7,2.9-1.103,5.9-1.103,9c0,3.104,0.4,6.104,1.103,9C584.6,419.3,598.7,430.8,615.5,430.8z"/>
<path id="XMLID_195_" fill="#FFFFFF" d="M-59.5,370.8c-1-1.199-2.5-1.898-4.2-1.898c-0.8,0-1.6,0.199-2.3,0.5
	c-0.3,0.1-0.5,0.199-0.7,0.398c-0.2,0.102-0.4,0.301-0.6,0.5c-0.1,0.102-0.3,0.201-0.4,0.301c-1.5,1.199-3.5,2-5.6,2
	c-2.2,0-4.2-0.801-5.8-2.1c-0.1,0-0.1,0-0.2,0c3.5,3.398,6.4,7.398,8.5,11.799l0,0c2,4.102,3.3,8.602,3.9,13.301
	c0.2,1.602,0.3,3.301,0.3,5c0,4.4-0.7,8.602-1.9,12.602l0,0l0,0l0,0c-0.7,1.5-1.3,3.1-1.8,4.701l0,0c-0.3,1-0.7,2-0.9,3.1
	c-1.3,4.799-2,9.9-2,15.199c0,1.398,0.1,2.801,0.2,4.201c0.2,2.396,0.5,4.799,1,7.197c-4.4-4.697-10.3-8.301-16-10.301
	c0.1-0.1-0.1,0.104,0,0c-3.8-1.699-7.3-4.1-10.2-7c-2.2-2.199-4.2-4.699-5.8-7.396c-1-1.701-1.9-3.604-2.6-5.5
	c-1.7,9-5.5,17.197-10.8,24.197l0,0c-0.3,0.4-0.5,0.699-0.8,1l0,0c-0.4,0.602-0.9,1.102-1.4,1.602l0,0c-2.2,2.5-4.5,4.801-7.1,6.898
	c-2,1.699-6.3,5.303-15,8.9c0,0-14,6.199-23.7,15.699c-0.8,0.801-1.5,1.5-2.3,2.301c-0.1,0.1-0.2,0.199-0.2,0.299
	c-0.3,0.4-0.7,0.701-1,1.104c-0.1,0.1-0.2,0.197-0.3,0.299c-0.4,0.5-0.8,0.898-1.2,1.398l-0.1,0.102c-0.4,0.5-0.9,1-1.3,1.6
	c-0.1,0.104-0.1,0.104-0.1,0.201c-0.4,0.5-0.8,1.1-1.2,1.6c0.1-0.398,0.2-0.697,0.3-1.1c0,0,0,0,0-0.1
	c0.1-0.303,0.1-0.604,0.2-0.803c0.1-0.398,0.2-0.898,0.2-1.301c0.1-0.396,0.1-0.799,0.2-1.1c0.1-0.4,0.1-0.799,0.1-1.102
	c0-0.301,0.1-0.697,0.1-1c0.1-0.801,0.1-1.6,0.1-2.398c0-4.4-0.8-8.602-2.3-12.5l0,0l0,0c-0.4-1.102-0.9-2.199-1.5-3.299
	c-0.7-1.803-1.2-3.604-1.9-5.4c-0.1-0.201-0.2-0.4-0.2-0.701c-1.5-4.1-2.6-8.5-3.3-12.896c-0.6-3.803-0.9-7.701-0.9-11.604
	c0-3.699,0.3-7.396,0.8-11l0,0c1.1-7.6,3.5-14.896,6.8-21.5c-4.3,1.9-9,2.9-14,2.9c-4.2,0-8.3-0.699-12-2.102l0,0
	c-0.6-0.301-1.2-0.5-1.9-0.697c0,0,0,0-0.1,0c-3.8-1.4-7.8-2.104-12-2.104h-0.1c-1.6,0-3.1,0.1-4.6,0.301
	c-0.2,0-0.4,0.102-0.6,0.102c-1.7,0.299-3.4,0.6-5,1.1c2-1.301,3.9-2.801,5.6-4.5c0.1-0.1,0.2-0.199,0.3-0.301l0,0
	c1.3-1.299,2.5-2.699,3.5-4.199c1.6-2.199,3-4.5,4.2-6.9c0.5-1.1,1-2.1,1.4-3.299c2.3-5.102,5.4-9.9,9-14.102
	c5.3-6.102,11.8-11.102,19.2-14.5c0.6-0.299,1.3-0.602,1.9-0.898c2-0.9,4.1-1.602,6.2-2.201c-0.5-0.199-1-0.5-1.4-0.799
	c-1.2-1-2-2.5-2-4.102c0-0.199,0-0.398,0-0.602c0-0.398-0.1-0.898-0.2-1.299l0,0c0-0.1,0-0.1,0-0.201c-0.6-2.5-2.3-4.6-4.5-5.799
	c1.2-0.6,2.4-1.1,3.6-1.6l0,0c0.4-0.201,0.9-0.4,1.3-0.5l0,0c0.6-0.201,1.3-0.4,1.9-0.701h0.1c0.7-0.199,1.3-0.5,2-0.699
	c5.9-1.9,12.3-2.9,18.8-3h0.2c0.1,0,0.3,0,0.4,0c0.1,0,0.3,0,0.4,0c0.1,0,0.3,0,0.4,0s0.3,0,0.4,0s0.1,0,0.2,0c0.1,0,0.1,0,0.2,0
	s0.2,0,0.3,0c15,0.799,27.1,12.699,28.1,27.6c0-0.1,0.1-0.1,0.1-0.199l0,0c0.2-6.5,1.6-12.699,3.8-18.398
	c4.4-11.5,12.4-21.301,22.7-27.801c2.4,1.199,4.7,2.699,6.9,4.199c-11.4,5.301-20.8,14.301-26.7,25.398
	c-2.5,4.701-4.3,9.801-5.4,15.102c3.3-4.199,7.6-7.602,12.4-9.898c4.6-2.201,9.7-3.4,15.1-3.4c11.8,0,22.3,5.9,28.7,14.801l0,0
	C-62.3,358.501-60.1,364.399-59.5,370.8z"/>
<polygon id="XMLID_174_" fill="#FFFFFF" points="201.5,421.8 129.5,421.8 129.5,403.8 210.5,403.8 "/>
</svg>
