<?xml version="1.0" encoding="utf-8"?>
<!-- Generator: Adobe Illustrator 16.0.0, SVG Export Plug-In . SVG Version: 6.00 Build 0)  -->
<!DOCTYPE svg PUBLIC "-//W3C//DTD SVG 1.1//EN" "http://www.w3.org/Graphics/SVG/1.1/DTD/svg11.dtd">
<svg version="1.1" id="Layer_1" xmlns="http://www.w3.org/2000/svg" xmlns:xlink="http://www.w3.org/1999/xlink" x="0px" y="0px"
	 width="664px" height="664.001px" viewBox="0 0 664 664.001" enable-background="new 0 0 664 664.001" xml:space="preserve">
<g>
	<linearGradient id="SVGID_1_" gradientUnits="userSpaceOnUse" x1="355.5781" y1="-0.4287" x2="309.0888" y2="664.3985">
		<stop  offset="0" style="stop-color:#048455"/>
		<stop  offset="0" style="stop-color:#06855E"/>
		<stop  offset="0" style="stop-color:#08856D"/>
		<stop  offset="0" style="stop-color:#0A8577"/>
		<stop  offset="0" style="stop-color:#0B857F"/>
		<stop  offset="0" style="stop-color:#0B8583"/>
		<stop  offset="0" style="stop-color:#0C8584"/>
		<stop  offset="1" style="stop-color:#0C8584"/>
	</linearGradient>
	<path fill="url(#SVGID_1_)" d="M654,503.652c0,82.5-67.5,150-150,150H160.667c-82.5,0-150-67.5-150-150V160.318
		c0-82.5,67.5-150,150-150H504c82.5,0,150,67.5,150,150V503.652z"/>
	<path fill="none" stroke="#FFFFFF" stroke-width="20" stroke-miterlimit="10" d="M654,503.652c0,82.5-67.5,150-150,150H160.667
		c-82.5,0-150-67.5-150-150V160.318c0-82.5,67.5-150,150-150H504c82.5,0,150,67.5,150,150V503.652z"/>
</g>
<circle display="none" fill="none" stroke="#FFFFFF" stroke-width="10" stroke-miterlimit="10" cx="332.333" cy="334.208" r="279.485"/>
<path id="XMLID_195_" fill="#FFFFFF" d="M536.597,269.787c-2.472-2.965-6.182-4.693-10.386-4.693c-1.979,0-3.956,0.493-5.689,1.236
	c-0.741,0.247-1.235,0.492-1.731,0.983c-0.494,0.253-0.987,0.747-1.482,1.236c-0.246,0.253-0.74,0.497-0.988,0.745
	c-3.713,2.964-8.654,4.947-13.849,4.947c-5.439,0-10.388-1.983-14.343-5.196c-0.247,0-0.247,0-0.493,0
	c8.653,8.403,15.824,18.292,21.019,29.178l0,0c4.946,10.146,8.161,21.273,9.643,32.895c0.494,3.961,0.744,8.163,0.744,12.363
	c0,10.882-1.732,21.273-4.7,31.164l0,0l0,0l0,0c-1.733,3.71-3.215,7.665-4.451,11.626l0,0c-0.741,2.474-1.73,4.944-2.224,7.665
	c-3.215,11.867-4.948,24.483-4.948,37.588c0,3.456,0.25,6.925,0.493,10.388c0.497,5.925,1.24,11.866,2.475,17.795
	c-10.883-11.614-25.47-20.525-39.567-25.474c0.246-0.246-0.244,0.261,0,0c-9.396-4.2-18.05-10.138-25.221-17.311
	c-5.442-5.438-10.39-11.62-14.344-18.287c-2.474-4.206-4.7-8.912-6.431-13.601c-4.204,22.256-13.6,42.524-26.709,59.836l0,0
	c-0.74,0.988-1.235,1.726-1.978,2.474l0,0c-0.987,1.487-2.225,2.724-3.461,3.961l0,0c-5.44,6.185-11.13,11.873-17.559,17.057
	c-4.948,4.201-15.578,13.117-37.094,22.011c0,0-34.62,15.329-58.607,38.821c-1.979,1.982-3.708,3.71-5.689,5.691
	c-0.246,0.245-0.493,0.49-0.493,0.737c-0.743,0.99-1.731,1.735-2.473,2.734c-0.247,0.246-0.494,0.484-0.741,0.735
	c-0.99,1.236-1.979,2.22-2.967,3.457l-0.25,0.254c-0.987,1.236-2.224,2.473-3.213,3.956c-0.248,0.261-0.248,0.261-0.248,0.499
	c-0.989,1.235-1.978,2.719-2.968,3.954c0.248-0.979,0.495-1.717,0.743-2.719c0,0,0,0,0-0.247c0.248-0.75,0.248-1.496,0.494-1.987
	c0.248-0.983,0.495-2.22,0.495-3.215c0.248-0.981,0.248-1.978,0.494-2.721c0.248-0.99,0.248-1.978,0.248-2.729
	c0-0.747,0.247-1.72,0.247-2.475c0.248-1.98,0.248-3.958,0.248-5.926c0-10.882-1.978-21.277-5.688-30.911l0,0l0,0
	c-0.989-2.731-2.225-5.437-3.71-8.156c-1.729-4.466-2.965-8.917-4.698-13.355c-0.247-0.495-0.494-0.989-0.494-1.733
	c-3.709-10.137-6.43-21.021-8.162-31.889c-1.483-9.407-2.224-19.044-2.224-28.697c0-9.149,0.741-18.291,1.978-27.204l0,0
	c2.72-18.793,8.655-36.833,16.816-53.169c-10.636,4.701-22.257,7.175-34.621,7.175c-10.387,0-20.525-1.73-29.675-5.203l0,0
	c-1.483-0.744-2.968-1.238-4.698-1.718c0,0,0,0-0.248,0c-9.398-3.464-19.291-5.207-29.675-5.207h-0.247
	c-3.958,0-7.666,0.248-11.376,0.746c-0.494,0-0.988,0.256-1.484,0.256c-4.204,0.739-8.408,1.484-12.365,2.719
	c4.946-3.216,9.645-6.926,13.849-11.127c0.247-0.246,0.495-0.493,0.743-0.745l0,0c3.213-3.211,6.181-6.674,8.656-10.383
	c3.954-5.439,7.417-11.129,10.384-17.064c1.237-2.72,2.474-5.192,3.462-8.158c5.688-12.616,13.355-24.479,22.256-34.873
	c13.107-15.093,29.181-27.458,47.48-35.858c1.485-0.738,3.216-1.491,4.699-2.221c4.945-2.224,10.139-3.961,15.332-5.443
	c-1.236-0.49-2.472-1.237-3.461-1.975c-2.968-2.474-4.945-6.182-4.945-10.143c0-0.494,0-0.986,0-1.493
	c0-0.98-0.248-2.218-0.495-3.213l0,0c0-0.247,0-0.247,0-0.497c-1.485-6.181-5.688-11.375-11.129-14.339
	c2.969-1.485,5.935-2.721,8.904-3.958l0,0c0.988-0.499,2.225-0.988,3.214-1.237l0,0c1.483-0.497,3.214-0.987,4.697-1.734h0.248
	c1.731-0.489,3.215-1.237,4.946-1.727c14.59-4.7,30.418-7.173,46.492-7.418h0.493c0.248,0,0.743,0,0.989,0c0.248,0,0.743,0,0.991,0
	c0.245,0,0.74,0,0.988,0c0.249,0,0.743,0,0.989,0c0.247,0,0.247,0,0.495,0s0.248,0,0.495,0c0.248,0,0.494,0,0.742,0
	c37.094,1.976,67.015,31.401,69.489,68.252c0-0.248,0.247-0.248,0.247-0.488l0,0c0.492-16.074,3.958-31.405,9.396-45.498
	c10.88-28.438,30.664-52.675,56.137-68.75c5.936,2.966,11.622,6.675,17.063,10.385c-28.19,13.108-51.438,35.365-66.026,62.803
	c-6.184,11.626-10.635,24.236-13.354,37.349c8.159-10.383,18.792-18.802,30.664-24.476c11.377-5.444,23.986-8.408,37.341-8.408
	c29.181,0,55.146,14.589,70.975,36.601l0,0C529.672,239.373,535.112,253.955,536.597,269.787z"/>
</svg>
