<?xml version="1.0" encoding="utf-8"?>
<!-- Generator: Adobe Illustrator 16.0.0, SVG Export Plug-In . SVG Version: 6.00 Build 0)  -->
<!DOCTYPE svg PUBLIC "-//W3C//DTD SVG 1.1//EN" "http://www.w3.org/Graphics/SVG/1.1/DTD/svg11.dtd">
<svg version="1.1" id="Layer_1" xmlns="http://www.w3.org/2000/svg" xmlns:xlink="http://www.w3.org/1999/xlink" x="0px" y="0px"
	 width="206px" height="191px" viewBox="-243.5 298.873 206 191" enable-background="new -243.5 298.873 206 191"
	 xml:space="preserve">
<path id="XMLID_195_" fill="#FFFFFF" d="M-59.5,370.8c-1-1.199-2.5-1.898-4.2-1.898c-0.8,0-1.6,0.199-2.3,0.5
	c-0.3,0.1-0.5,0.199-0.7,0.398c-0.2,0.102-0.4,0.301-0.6,0.5c-0.1,0.102-0.3,0.201-0.4,0.301c-1.5,1.199-3.5,2-5.6,2
	c-2.2,0-4.2-0.801-5.8-2.1c-0.1,0-0.1,0-0.2,0c3.5,3.397,6.4,7.397,8.5,11.799l0,0c2,4.102,3.3,8.602,3.9,13.301
	c0.2,1.602,0.3,3.301,0.3,5c0,4.4-0.7,8.602-1.9,12.602l0,0l0,0l0,0c-0.7,1.5-1.3,3.1-1.8,4.701l0,0c-0.3,1-0.7,2-0.9,3.1
	c-1.3,4.799-2,9.9-2,15.199c0,1.398,0.1,2.801,0.2,4.201c0.2,2.396,0.5,4.799,1,7.197c-4.4-4.697-10.3-8.301-16-10.301
	c0.1-0.1-0.1,0.104,0,0c-3.8-1.699-7.3-4.1-10.2-7c-2.2-2.199-4.2-4.699-5.8-7.396c-1-1.701-1.9-3.604-2.6-5.5
	c-1.7,9-5.5,17.197-10.8,24.197l0,0c-0.3,0.4-0.5,0.699-0.8,1l0,0c-0.4,0.602-0.9,1.102-1.4,1.602l0,0c-2.2,2.5-4.5,4.801-7.1,6.898
	c-2,1.699-6.3,5.303-15,8.9c0,0-14,6.199-23.7,15.699c-0.8,0.801-1.5,1.5-2.3,2.301c-0.1,0.1-0.2,0.199-0.2,0.299
	c-0.3,0.4-0.7,0.701-1,1.104c-0.1,0.1-0.2,0.197-0.3,0.299c-0.4,0.5-0.8,0.898-1.2,1.398l-0.1,0.102c-0.4,0.5-0.9,1-1.3,1.6
	c-0.1,0.105-0.1,0.105-0.1,0.201c-0.4,0.5-0.8,1.1-1.2,1.6c0.1-0.396,0.2-0.695,0.3-1.1c0,0,0,0,0-0.1
	c0.1-0.303,0.1-0.604,0.2-0.803c0.1-0.398,0.2-0.898,0.2-1.301c0.1-0.396,0.1-0.799,0.2-1.1c0.1-0.4,0.1-0.799,0.1-1.104
	c0-0.301,0.1-0.695,0.1-1c0.1-0.801,0.1-1.6,0.1-2.396c0-4.4-0.8-8.604-2.3-12.5l0,0l0,0c-0.4-1.104-0.9-2.199-1.5-3.299
	c-0.7-1.805-1.2-3.605-1.9-5.4c-0.1-0.201-0.2-0.4-0.2-0.701c-1.5-4.1-2.6-8.5-3.3-12.896c-0.6-3.803-0.9-7.701-0.9-11.604
	c0-3.699,0.3-7.396,0.8-11l0,0c1.1-7.6,3.5-14.896,6.8-21.5c-4.3,1.9-9,2.9-14,2.9c-4.2,0-8.3-0.699-12-2.104l0,0
	c-0.6-0.301-1.2-0.5-1.9-0.695c0,0,0,0-0.1,0c-3.8-1.4-7.8-2.105-12-2.105h-0.1c-1.6,0-3.1,0.101-4.6,0.302
	c-0.2,0-0.4,0.103-0.6,0.103c-1.7,0.299-3.4,0.6-5,1.1c2-1.301,3.9-2.801,5.6-4.5c0.1-0.1,0.2-0.199,0.3-0.301l0,0
	c1.3-1.299,2.5-2.699,3.5-4.199c1.6-2.199,3-4.5,4.2-6.9c0.5-1.1,1-2.1,1.4-3.299c2.3-5.102,5.4-9.9,9-14.102
	c5.3-6.103,11.8-11.103,19.2-14.5c0.6-0.299,1.3-0.603,1.9-0.898c2-0.9,4.1-1.602,6.2-2.201c-0.5-0.199-1-0.5-1.4-0.799
	c-1.2-1-2-2.5-2-4.102c0-0.199,0-0.398,0-0.603c0-0.397-0.1-0.897-0.2-1.299l0,0c0-0.101,0-0.101,0-0.201
	c-0.6-2.5-2.3-4.601-4.5-5.799c1.2-0.601,2.4-1.101,3.6-1.601l0,0c0.4-0.201,0.9-0.399,1.3-0.5l0,0c0.6-0.201,1.3-0.399,1.9-0.701
	h0.1c0.7-0.198,1.3-0.5,2-0.698c5.9-1.9,12.3-2.9,18.8-3h0.2c0.1,0,0.3,0,0.4,0c0.1,0,0.3,0,0.4,0c0.1,0,0.3,0,0.4,0s0.3,0,0.4,0
	s0.1,0,0.2,0c0.1,0,0.1,0,0.2,0s0.2,0,0.3,0c15,0.799,27.1,12.698,28.1,27.6c0-0.1,0.1-0.1,0.1-0.198l0,0
	c0.2-6.5,1.6-12.699,3.8-18.398c4.4-11.5,12.4-21.301,22.7-27.801c2.4,1.199,4.7,2.699,6.9,4.199
	c-11.4,5.301-20.8,14.301-26.7,25.397c-2.5,4.701-4.3,9.801-5.4,15.103c3.3-4.199,7.6-7.603,12.4-9.898c4.6-2.201,9.7-3.4,15.1-3.4
	c11.8,0,22.3,5.9,28.7,14.801l0,0C-62.3,358.501-60.1,364.399-59.5,370.8z"/>
</svg>
