<?xml version="1.0" encoding="utf-8"?>
<!-- Generator: Adobe Illustrator 16.0.0, SVG Export Plug-In . SVG Version: 6.00 Build 0)  -->
<!DOCTYPE svg PUBLIC "-//W3C//DTD SVG 1.1//EN" "http://www.w3.org/Graphics/SVG/1.1/DTD/svg11.dtd">
<svg version="1.1" id="Layer_1" xmlns="http://www.w3.org/2000/svg" xmlns:xlink="http://www.w3.org/1999/xlink" x="0px" y="0px"
	 width="1162px" height="286px" viewBox="-275.5 244.5 1162 286" enable-background="new -275.5 244.5 1162 286"
	 xml:space="preserve">
<rect id="XMLID_290_" x="-23.5" y="340.8" fill="#010101" width="18" height="40.5"/>
<rect id="XMLID_303_" x="-23.5" y="385.8" fill="#010101" width="18" height="63"/>
<rect id="XMLID_306_" x="417.5" y="340.8" fill="#010101" width="18" height="40.5"/>
<rect id="XMLID_309_" x="417.5" y="385.8" fill="#010101" width="18" height="63"/>
<rect id="XMLID_304_" x="705.5" y="340.8" fill="#010101" width="18" height="40.5"/>
<rect id="XMLID_305_" x="705.5" y="385.8" fill="#010101" width="18" height="63"/>
<polygon id="XMLID_308_" fill="#010101" points="525.5,385.8 525.5,403.8 430.9,403.8 435.5,395.4 440.7,385.8 "/>
<polygon id="XMLID_307_" fill="#010101" points="807.5,385.8 807.5,403.8 718.7,403.8 723.5,394.3 727.7,385.8 "/>
<path id="XMLID_275_" fill="#010101" d="M521.1,430.8v17.7c-1.699,0.2-3.5,0.3-5.3,0.3h-80.3v-18H521.1z"/>
<path id="XMLID_274_" fill="#010101" d="M521.1,341.1v17.7h-94.6v-18h88.7C517.2,340.8,519.2,340.9,521.1,341.1z"/>
<polygon id="XMLID_301_" fill="#010101" points="39.5,385.8 17.8,407.6 5,394.8 14.1,385.8 "/>
<polygon id="XMLID_302_" fill="#010101" points="84.5,340.9 44,381.3 18.6,381.3 59.1,340.8 "/>
<polygon id="XMLID_289_" fill="#010101" points="84.5,448.8 59,448.8 17.8,407.6 5,394.8 14.1,385.8 21.5,385.8 30.5,394.8 "/>
<polygon id="XMLID_271_" fill="#010101" points="840.5,448.8 815,448.8 773.8,407.6 761,394.8 777.5,385.8 786.5,394.8 "/>
<polygon id="XMLID_297_" fill="#010101" points="132.5,385.8 152.1,385.8 141.1,403.8 130.1,421.8 113.7,448.8 93.5,448.8 "/>
<path id="XMLID_300_" fill="#010101" d="M178.1,343.2l-8.2,13.4l-15.1,24.8h-19.5l19.4-31.4c1.8-2.9,4.2-5.2,7.1-6.7
	c2.5-1.4,5.3-2.2,8.2-2.4C172.9,341,175.7,341.8,178.1,343.2z"/>
<path id="XMLID_293_" fill="#010101" d="M204.7,381.3H185l-15-24.8l-8.1-13.4c2.5-1.4,5.3-2.2,8.2-2.4c2.9,0.2,5.6,1,8.1,2.3
	c2.8,1.5,5.2,3.8,7,6.6L204.7,381.3z"/>
<polygon id="XMLID_296_" fill="#010101" points="246.5,448.8 225.8,448.8 205.1,414.6 198.6,403.8 187.7,385.8 207.5,385.8 "/>
<path id="XMLID_267_" fill="#010101" d="M292.1,430.3c-19.6,0-35.5-15.899-35.5-35.5c0-3.1,0.4-6.1,1.1-9h-18.9
	c-0.5,2.9-0.8,5.9-0.8,9c0,29.8,24.2,54,54,54c11.6,0,22.4-3.7,31.2-9.899c3.5-2.5,6.7-5.301,9.5-8.5h-40.6V430.3z M292.1,359.3
	h40.7c-2.8-3.2-6-6.1-9.5-8.5c-8.8-6.3-19.6-9.9-31.2-9.9c-25.2,0-46.3,17.2-52.3,40.5h19.4C264.5,368.4,277.2,359.3,292.1,359.3z"
	/>
<path id="XMLID_265_" fill="#010101" d="M407.7,385.8h-18.9c0.8,2.9,1.2,5.9,1.2,9c0,19.601-15.9,35.5-35.5,35.5h-40.7
	c2.8,3.2,6,6.101,9.5,8.5c8.8,6.3,19.601,9.9,31.2,9.9c29.8,0,54-24.2,54-54C408.5,391.7,408.2,388.7,407.7,385.8z M354.5,359.3
	c14.8,0,27.6,9.1,32.9,22H406.8c-5.899-23.1-26.8-40.2-51.6-40.5c-0.2,0-0.4,0-0.601,0c-11.6,0-22.399,3.7-31.199,9.9
	c-3.5,2.5-6.7,5.3-9.5,8.5h40.6V359.3z"/>
<rect id="XMLID_264_" x="292.1" y="340.8" fill="#010101" width="63" height="18.5"/>
<rect id="XMLID_263_" x="292.1" y="430.3" fill="#010101" width="62.4" height="18.5"/>
<path id="XMLID_262_" fill="#010101" d="M552.6,417.3c0,15.9-11.699,29-27,31.2c-1.5,0.2-3,0.3-4.5,0.3
	c-12.6,0-23.399-7.399-28.5-18h28.5c7.5,0,13.5-6,13.5-13.5s-6-13.5-13.5-13.5h-28.5c1.601-3.399,3.801-6.399,6.4-9
	c5.7-5.6,13.5-9,22.1-9c1.5,0,3,0.1,4.5,0.3c6.801,1,12.9,4.1,17.601,8.7C549,400.5,552.6,408.5,552.6,417.3z"/>
<path id="XMLID_298_" fill="#010101" d="M546.5,385.8c-1.3,2.8-3,5.3-5,7.5c-0.4,0.5-0.9,1-1.4,1.5c-4,3.9-9,6.8-14.6,8.101
	c-1,0.199-1.9,0.399-2.9,0.6c-1.5,0.2-3,0.3-4.5,0.3c-7.8,0-14.899-2.8-20.399-7.5c-0.601-0.5-1.101-1-1.601-1.5
	c-2.6-2.6-4.8-5.6-6.399-9H546.5z"/>
<path id="XMLID_299_" fill="#010101" d="M549.6,372.3c0,3.1-0.5,6.1-1.3,9h-20.1c2.1-2.4,3.399-5.5,3.399-9c0-7.5-6-13.5-13.5-13.5
	h-28.5c4.9-10.3,15.2-17.5,27.2-18c0.4,0,0.8,0,1.3,0c1.5,0,3,0.1,4.5,0.3C537.8,343.3,549.6,356.4,549.6,372.3z"/>
<path id="XMLID_294_" fill="#010101" d="M834.4,385.8c-1.601,3.4-3.801,6.4-6.4,9c-4.7,4.601-10.8,7.7-17.6,8.7c-1,0.1-2,0.2-3,0.3
	c-0.5,0-1,0-1.5,0c-4.801,0-9.4-1.1-13.5-3l0,0c-3.2-1.5-6.101-3.5-8.601-6c-2.6-2.6-4.8-5.6-6.399-9H834.4z"/>
<path id="XMLID_295_" fill="#010101" d="M837.4,372.3c0,3.1-0.5,6.1-1.301,9H816c2.1-2.4,3.4-5.5,3.4-9c0-7.5-6-13.5-13.5-13.5
	h-28.5c4.899-10.2,15.1-17.4,27-18c0.5,0,1,0,1.5,0c1.5,0,3,0.1,4.5,0.3C825.7,343.3,837.4,356.4,837.4,372.3z"/>
<polygon id="XMLID_259_" fill="#010101" points="696.5,340.8 687.5,358.8 615.5,358.8 615.5,340.8 "/>
<polygon id="XMLID_288_" fill="#010101" points="687.5,385.8 678.5,403.8 571.8,403.8 571.8,385.8 "/>
<rect id="XMLID_257_" x="706.8" y="340.8" fill="#010101" width="97.7" height="18"/>
<polygon id="XMLID_256_" fill="#010101" points="696.5,430.8 687.5,448.8 615.5,448.8 615.5,430.8 "/>
<path id="XMLID_291_" fill="#010101" d="M582.1,381.3H563.2c6-23.3,27.1-40.5,52.3-40.5c16,0,30.4,7,40.2,18h-40.2
	C600.4,358.8,587.4,368.1,582.1,381.3z"/>
<path id="XMLID_292_" fill="#010101" d="M615.5,430.8h40.2c-9.9,11-24.3,18-40.2,18c-29.8,0-54-24.2-54-54c0-3.1,0.3-6.1,0.8-9h18.4
	c-0.7,2.9-1.101,5.9-1.101,9c0,3.101,0.4,6.101,1.101,9C584.6,419.3,598.7,430.8,615.5,430.8z"/>
<path id="XMLID_195_" fill="#010101" d="M-59.5,370.8c-1-1.2-2.5-1.9-4.2-1.9c-0.8,0-1.6,0.2-2.3,0.5c-0.3,0.1-0.5,0.2-0.7,0.4
	c-0.2,0.1-0.4,0.3-0.6,0.5c-0.1,0.1-0.3,0.2-0.4,0.3c-1.5,1.2-3.5,2-5.6,2c-2.2,0-4.2-0.8-5.8-2.1c-0.1,0-0.1,0-0.2,0
	c3.5,3.4,6.4,7.4,8.5,11.8l0,0c2,4.1,3.3,8.6,3.9,13.3c0.2,1.6,0.3,3.3,0.3,5c0,4.4-0.7,8.601-1.9,12.601l0,0l0,0l0,0
	c-0.7,1.5-1.3,3.1-1.8,4.7l0,0c-0.3,1-0.7,2-0.9,3.1c-1.3,4.8-2,9.9-2,15.2c0,1.399,0.1,2.8,0.2,4.2c0.2,2.399,0.5,4.8,1,7.199
	c-4.4-4.699-10.3-8.3-16-10.3c0.1-0.1-0.1,0.101,0,0c-3.8-1.7-7.3-4.1-10.2-7c-2.2-2.2-4.2-4.7-5.8-7.399c-1-1.7-1.9-3.601-2.6-5.5
	c-1.7,9-5.5,17.199-10.8,24.199l0,0c-0.3,0.4-0.5,0.7-0.8,1l0,0c-0.4,0.601-0.9,1.101-1.4,1.601l0,0c-2.2,2.5-4.5,4.8-7.1,6.899
	c-2,1.7-6.3,5.301-15,8.9c0,0-14,6.2-23.7,15.7c-0.8,0.8-1.5,1.5-2.3,2.3c-0.1,0.1-0.2,0.2-0.2,0.3c-0.3,0.4-0.7,0.7-1,1.101
	c-0.1,0.1-0.2,0.199-0.3,0.3c-0.4,0.5-0.8,0.899-1.2,1.399l-0.1,0.101c-0.4,0.5-0.9,1-1.3,1.6c-0.1,0.101-0.1,0.101-0.1,0.2
	c-0.4,0.5-0.8,1.1-1.2,1.6c0.1-0.399,0.2-0.699,0.3-1.1c0,0,0,0,0-0.1c0.1-0.301,0.1-0.601,0.2-0.801c0.1-0.399,0.2-0.899,0.2-1.3
	c0.1-0.399,0.1-0.8,0.2-1.1c0.1-0.4,0.1-0.8,0.1-1.101c0-0.3,0.1-0.699,0.1-1c0.1-0.8,0.1-1.6,0.1-2.399c0-4.4-0.8-8.601-2.3-12.5
	l0,0l0,0c-0.4-1.101-0.9-2.2-1.5-3.3c-0.7-1.801-1.2-3.601-1.9-5.4c-0.1-0.2-0.2-0.4-0.2-0.7c-1.5-4.1-2.6-8.5-3.3-12.899
	c-0.6-3.801-0.9-7.7-0.9-11.601c0-3.7,0.3-7.399,0.8-11l0,0c1.1-7.6,3.5-14.899,6.8-21.5c-4.3,1.9-9,2.9-14,2.9
	c-4.2,0-8.3-0.7-12-2.101l0,0c-0.6-0.3-1.2-0.5-1.9-0.699c0,0,0,0-0.1,0c-3.8-1.4-7.8-2.101-12-2.101h-0.1c-1.6,0-3.1,0.1-4.6,0.3
	c-0.2,0-0.4,0.1-0.6,0.1c-1.7,0.3-3.4,0.6-5,1.1c2-1.3,3.9-2.8,5.6-4.5c0.1-0.1,0.2-0.2,0.3-0.3l0,0c1.3-1.3,2.5-2.7,3.5-4.2
	c1.6-2.2,3-4.5,4.2-6.9c0.5-1.1,1-2.1,1.4-3.3c2.3-5.1,5.4-9.9,9-14.1c5.3-6.1,11.8-11.1,19.2-14.5c0.6-0.3,1.3-0.6,1.9-0.9
	c2-0.9,4.1-1.6,6.2-2.2c-0.5-0.2-1-0.5-1.4-0.8c-1.2-1-2-2.5-2-4.1c0-0.2,0-0.4,0-0.6c0-0.4-0.1-0.9-0.2-1.3l0,0c0-0.1,0-0.1,0-0.2
	c-0.6-2.5-2.3-4.6-4.5-5.8c1.2-0.6,2.4-1.1,3.6-1.6l0,0c0.4-0.2,0.9-0.4,1.3-0.5l0,0c0.6-0.2,1.3-0.4,1.9-0.7h0.1
	c0.7-0.2,1.3-0.5,2-0.7c5.9-1.9,12.3-2.9,18.8-3h0.2c0.1,0,0.3,0,0.4,0c0.1,0,0.3,0,0.4,0c0.1,0,0.3,0,0.4,0s0.3,0,0.4,0
	s0.1,0,0.2,0c0.1,0,0.1,0,0.2,0s0.2,0,0.3,0c15,0.8,27.1,12.7,28.1,27.6c0-0.1,0.1-0.1,0.1-0.2l0,0c0.2-6.5,1.6-12.7,3.8-18.4
	c4.4-11.5,12.4-21.3,22.7-27.8c2.4,1.2,4.7,2.7,6.9,4.2c-11.4,5.3-20.8,14.3-26.7,25.4c-2.5,4.7-4.3,9.8-5.4,15.1
	c3.3-4.2,7.6-7.6,12.4-9.9c4.6-2.2,9.7-3.4,15.1-3.4c11.8,0,22.3,5.9,28.7,14.8l0,0C-62.3,358.5-60.1,364.4-59.5,370.8z"/>
<polygon id="XMLID_174_" fill="#010101" points="201.5,421.8 129.5,421.8 129.5,403.8 210.5,403.8 "/>
</svg>
